<svg xmlns="http://www.w3.org/2000/svg" xmlns:xlink="http://www.w3.org/1999/xlink" width="40" height="40" viewBox="0 0 40 40">
    <defs>
        <path id="z84b50t81a" d="M0 0H40V40H0z"/>
    </defs>
    <g fill="none" fill-rule="evenodd">
        <g>
            <g>
                <g transform="translate(-110 -78) translate(0 48) translate(110 30)">
                    <mask id="p4cp7wnheb" fill="#fff">
                        <use xlink:href="#z84b50t81a"/>
                    </mask>
                    <use fill="#D8D8D8" fill-opacity="0" xlink:href="#z84b50t81a"/>
                    <g fill="#333" fill-rule="nonzero" mask="url(#p4cp7wnheb)">
                        <path d="M17.127.74c1.073-.944 2.677-.985 3.796-.124l.15.123 16.15 14.193c.57.501.916 1.198.97 1.94l.007.204v18.241c0 1.536-1.229 2.79-2.777 2.878l-.173.005H2.95C1.38 38.2.095 37 .005 35.487L0 35.317V17.076c0-.75.299-1.467.828-2.002l.15-.142L17.127.74zM19.1 3.015L3.05 17.076l-.001 18.141h14.525l.001-10.104c0-.779.61-1.417 1.386-1.485l.139-.007c.738 0 1.36.515 1.498 1.212l.02.141.007.139v10.104h14.524l.035-18.066L19.099 3.016z" transform="translate(.9 .9)"/>
                    </g>
                </g>
            </g>
        </g>
    </g>
</svg>
