<svg xmlns="http://www.w3.org/2000/svg" width="50" height="50" viewBox="0 0 50 50">
    <g fill="none" fill-rule="evenodd">
        <g>
            <g>
                <g>
                    <g transform="translate(-30 -987) translate(0 583) translate(30 21) translate(0 383)">
                        <circle cx="21" cy="25" r="21" fill="#F75958"/>
                        <path fill="#FFF" d="M21 14c6.075 0 11 4.925 11 11s-4.925 11-11 11-11-4.925-11-11 4.925-11 11-11zm0 4c-.552 0-1 .448-1 1v6.02l.003.042c.017.301.169.566.396.737l3.899 3.898c.39.39 1.023.39 1.414 0l.083-.095c.305-.392.277-.96-.083-1.32L22 24.57V19c0-.513-.386-.936-.883-.993z"/>
                    </g>
                </g>
            </g>
        </g>
    </g>
</svg>
