<svg xmlns="http://www.w3.org/2000/svg" width="50" height="50" viewBox="0 0 50 50">
    <g fill="none" fill-rule="evenodd">
        <g>
            <g>
                <g>
                    <g transform="translate(-30 -604) translate(0 583) translate(30 21) translate(0 4)">
                        <circle cx="21" cy="21" r="21" fill="#6BA7FF"/>
                        <g fill="#FFF">
                            <path d="M10.5 0C16.299 0 21 4.701 21 10.5c0 2.157-.65 4.162-1.766 5.83l1.751 4.662c.146.388-.05.82-.438.966-.171.065-.36.064-.531-.001l-5.081-1.937c-1.347.629-2.85.98-4.435.98C4.701 21 0 16.299 0 10.5S4.701 0 10.5 0zm5 9c-.828 0-1.5.672-1.5 1.5s.672 1.5 1.5 1.5 1.5-.672 1.5-1.5S16.328 9 15.5 9zm-10 0C4.672 9 4 9.672 4 10.5S4.672 12 5.5 12 7 11.328 7 10.5 6.328 9 5.5 9zm5 0C9.672 9 9 9.672 9 10.5s.672 1.5 1.5 1.5 1.5-.672 1.5-1.5S11.328 9 10.5 9z" transform="translate(10 10)"/>
                        </g>
                    </g>
                </g>
            </g>
        </g>
    </g>
</svg>
