<svg xmlns="http://www.w3.org/2000/svg" width="21" height="20" viewBox="0 0 21 20">
    <g fill="none" fill-rule="evenodd">
        <g fill="#FF9500">
            <path d="M10.483 15.914L5.114 19.77c-.592.426-1.417.29-1.842-.302-.251-.35-.316-.8-.174-1.205l2.046-5.853L.573 9.353c-.606-.405-.769-1.225-.364-1.831.245-.366.657-.586 1.098-.586h5.765L9.217.826c.241-.687.995-1.05 1.683-.808.382.135.682.437.812.821l2.071 6.097h5.91c.73 0 1.32.59 1.32 1.32 0 .442-.22.855-.59 1.1l-4.6 3.053 2.028 5.857c.238.689-.127 1.44-.816 1.679-.406.14-.855.075-1.203-.176l-5.349-3.855z"/>
        </g>
    </g>
</svg>
