<svg xmlns="http://www.w3.org/2000/svg" width="94" height="32" viewBox="0 0 94 32">
    <g fill="#333" fill-rule="evenodd" opacity=".9">
        <path fill-rule="nonzero" d="M24.21 18.87V2.64h-3.33v16.23h3.33zm-5.16-.06V3.12h-3.3v12.33h-3.93v2.34h3.93v1.02h3.3zM7.92 11.76c3.39 0 5.94-1.59 5.94-4.11 0-2.55-2.55-4.14-5.94-4.14-3.39 0-5.85 1.59-5.85 4.11 0 2.55 2.46 4.14 5.85 4.14zm0-2.55c-1.59 0-2.61-.69-2.61-1.59 0-.84.99-1.56 2.61-1.56 1.56 0 2.64.72 2.64 1.56 0 .9-1.08 1.59-2.64 1.59zm1.26 9.6v-3.6c1.71-.15 3.48-.33 5.37-.63-.12-.84-.21-1.68-.3-2.55-5.07.66-9.12.72-13.5.72l.39 2.79c1.32 0 2.91-.03 4.74-.09v3.36h3.3zm15.03 10.23v-9.12h-3.45v1.89H8.82v-1.86H5.34v9.09h18.87zm-3.45-2.76H8.82v-1.8h11.94v1.8zm27.42-10.95v-2.7H33.54v-1.71h13.5V8.28h-13.5V6.57h14.4V3.84H30.03v11.49h18.15zm-7.26 8.91v-4.23H51v-2.82H26.85v2.82h10.56v4.23h3.51zm7.26 4.41v-2.79H33.45v-4.41h-3.51v7.2h18.24z"/>
        <g transform="translate(58 3)">
            <path d="M23 0c7.18 0 13 5.82 13 13s-5.82 13-13 13-13-5.82-13-13S15.82 0 23 0zm-.5 5c-.828 0-1.5.672-1.5 1.5v7c0 .146.02.288.06.421l.005.017c.068.232.193.45.375.633l4.37 4.404.004.004c.584.584 1.53.584 2.113 0 .588-.588.59-1.534.008-2.12L24 12.891V6.5c0-.828-.672-1.5-1.5-1.5z"/>
            <circle cx="2" cy="13" r="2"/>
        </g>
    </g>
</svg>
