<svg xmlns="http://www.w3.org/2000/svg" width="26" height="32" viewBox="0 0 26 32">
    <path fill="#3A3A3A" d="M17.67 5.52V2.91H8.28v2.61h9.39zm5.88 3.63V6.51H2.4v2.64h21.15zm1.5 11.7v-2.76H14.67v-.9c4.59-.3 6.72-1.71 6.72-3.66 0-2.25-2.64-3.75-8.4-3.75s-8.43 1.5-8.43 3.75c0 1.92 2.1 3.33 6.6 3.63v.93H.9v2.76h24.15zm-12.06-6.03c-3.36 0-4.83-.51-4.83-1.29 0-.81 1.47-1.32 4.83-1.32 3.36 0 4.83.51 4.83 1.32 0 .78-1.47 1.29-4.83 1.29zm8.97 14.4v-7.26H3.99v7.26h17.97zm-3.51-2.49H7.5v-2.19h10.95v2.19z" opacity=".9"/>
</svg>
