<svg xmlns="http://www.w3.org/2000/svg" width="76" height="32" viewBox="0 0 76 32">
    <g fill="none" fill-rule="evenodd" opacity=".9">
        <g fill="#333" fill-rule="nonzero">
            <g>
                <g>
                    <path d="M25.05 19.29v-2.82H14.67v-1.95h7.56v-2.67H7.62v-1.56h13.5V7.62H7.62V6.09h14.4V3.33H4.08v11.19h7.08v1.95H.9v2.82h24.15zM21.93 29.4V21H3.75v2.79h14.7v5.61h3.48zm26.28-11.97v-2.79H33.42V7.71h14.55V4.89H29.94v12.54h18.27zM51 25.86v-2.79H26.85v2.79H51zm23.88-8.46V2.64H71.4V17.4h3.48zm-17.13-.36c3.57 0 8.64-.36 11.07-.93l-.33-2.67c-2.07.6-7.5.99-10.83.81v-2.7h8.67V3.96h-12.3v2.76h8.82v2.19h-8.7v8.13h3.6zm17.13 11.97V18.75H71.4v2.55H60.81v-2.52H57.3v10.23h17.58zm-3.48-2.79H60.81V24H71.4v2.22z" transform="translate(-413 -29) translate(29 22) translate(384 7)"/>
                </g>
            </g>
        </g>
    </g>
</svg>
