<svg xmlns="http://www.w3.org/2000/svg" width="120" height="32" viewBox="0 0 120 32">
    <g fill="#333" fill-rule="evenodd" opacity=".9">
        <path fill-rule="nonzero" d="M24.21 18.87V2.64h-3.33v16.23h3.33zm-5.16-.06V3.12h-3.3v12.33h-3.93v2.34h3.93v1.02h3.3zM7.92 11.76c3.39 0 5.94-1.59 5.94-4.11 0-2.55-2.55-4.14-5.94-4.14-3.39 0-5.85 1.59-5.85 4.11 0 2.55 2.46 4.14 5.85 4.14zm0-2.55c-1.59 0-2.61-.69-2.61-1.59 0-.84.99-1.56 2.61-1.56 1.56 0 2.64.72 2.64 1.56 0 .9-1.08 1.59-2.64 1.59zm1.26 9.6v-3.6c1.71-.15 3.48-.33 5.37-.63-.12-.84-.21-1.68-.3-2.55-5.07.66-9.12.72-13.5.72l.39 2.79c1.32 0 2.91-.03 4.74-.09v3.36h3.3zm15.03 10.23v-9.12h-3.45v1.89H8.82v-1.86H5.34v9.09h18.87zm-3.45-2.76H8.82v-1.8h11.94v1.8zm27.9-9.03l1.65-2.76c-4.05-.66-9.54-4.14-9.54-8.85V4.02h-3.66v1.62c0 4.77-5.16 8.13-9.51 8.76l1.59 2.85c3.66-.81 8.34-3.54 9.72-7.14 1.53 3.51 6.09 6.3 9.75 7.14zM51 26.04v-2.76H40.62v-6.36h-3.54v6.36H26.85v2.76H51zm23.91-9.87V2.64H71.4v4.8h-4.56v2.82h4.56v5.91h3.51zm-20.31.45c2.52-.84 5.43-3.24 6.24-5.97 1.14 2.46 3.9 4.5 5.94 5.28l1.95-2.61c-3.09-.99-6.12-3.93-6.12-8.04v-1.8h-3.66v1.98c0 4.05-2.52 7.14-6.36 8.55l2.01 2.61zm21.12 12.54v-2.82H60.87v-1.71h14.04v-7.11H57.18v2.79H71.4v1.74H57.33v7.11h18.39z"/>
        <g transform="translate(84 3)">
            <path d="M23 0c7.18 0 13 5.82 13 13s-5.82 13-13 13-13-5.82-13-13S15.82 0 23 0zm-.5 5c-.828 0-1.5.672-1.5 1.5v7c0 .146.02.288.06.421l.005.017c.068.232.193.45.375.633l4.37 4.404.004.004c.584.584 1.53.584 2.113 0 .588-.588.59-1.534.008-2.12L24 12.891V6.5c0-.828-.672-1.5-1.5-1.5z"/>
            <circle cx="2" cy="13" r="2"/>
        </g>
    </g>
</svg>
