<svg xmlns="http://www.w3.org/2000/svg" width="41" height="48" viewBox="0 0 41 48">
    <g fill="none" fill-rule="evenodd">
        <g>
            <g>
                <g>
                    <path fill="#F5B81D" d="M9 38L41 38 41 0 9 0z" transform="translate(-478 -75) translate(0 48) translate(478 27)"/>
                    <path fill="#F5B81D" d="M0 48L32 48 32 10 0 10z" transform="translate(-478 -75) translate(0 48) translate(478 27)"/>
                    <path fill="#000" d="M20.096 10c-3.005 0-5.426.79-7.263 2.37-1.836 1.58-2.754 3.659-2.754 6.24 0 2.132.603 3.843 1.81 5.133 1.208 1.29 3.096 2.199 5.664 2.726l4.277.868c2.183.395 3.275 1.317 3.275 2.765 0 .921-.379 1.638-1.137 2.152-.757.513-1.817.77-3.178.77-1.721 0-3.14-.401-4.258-1.205-1.117-.802-1.778-1.889-1.984-3.258H9c.231 2.923 1.4 5.226 3.506 6.912C14.612 37.157 17.271 38 20.481 38c3.134 0 5.651-.777 7.552-2.33 1.901-1.553 2.851-3.62 2.851-6.2 0-2.16-.668-3.825-2.003-4.996-1.336-1.172-3.326-2.034-5.972-2.587l-3.237-.671c-1.258-.264-2.196-.632-2.812-1.106-.617-.474-.925-1.145-.925-2.014 0-1.027.411-1.836 1.233-2.429.822-.592 1.926-.888 3.313-.888 2.954 0 4.624 1.342 5.01 4.028H31c-.154-1.659-.597-3.087-1.33-4.285-.731-1.198-1.643-2.113-2.735-2.744-1.092-.633-2.202-1.087-3.333-1.363-1.13-.277-2.298-.415-3.506-.415" transform="translate(-478 -75) translate(0 48) translate(478 27)"/>
                </g>
            </g>
        </g>
    </g>
</svg>
